<?xml version="1.0" encoding="UTF-8" standalone="no"?>
<svg
   width="35"
   height="200"
   version="1.1"
   id="svg8"
   sodipodi:docname="add-workspace-active.svg"
   inkscape:version="1.2.2 (b0a8486541, 2022-12-01)"
   xmlns:inkscape="http://www.inkscape.org/namespaces/inkscape"
   xmlns:sodipodi="http://sodipodi.sourceforge.net/DTD/sodipodi-0.dtd"
   xmlns:xlink="http://www.w3.org/1999/xlink"
   xmlns="http://www.w3.org/2000/svg"
   xmlns:svg="http://www.w3.org/2000/svg">
  <defs
     id="defs12">
    <linearGradient
       inkscape:collect="always"
       id="linearGradient916">
      <stop
         style="stop-color:#6a58f0;stop-opacity:1;"
         offset="0"
         id="stop912" />
      <stop
         style="stop-color:#cf54d0;stop-opacity:1;"
         offset="1"
         id="stop914" />
    </linearGradient>
    <linearGradient
       inkscape:collect="always"
       xlink:href="#linearGradient916"
       id="linearGradient1074"
       x1="21"
       y1="857.35999"
       x2="21"
       y2="1047.36"
       gradientUnits="userSpaceOnUse" />
  </defs>
  <sodipodi:namedview
     id="namedview10"
     pagecolor="#ffffff"
     bordercolor="#000000"
     borderopacity="0.25"
     inkscape:showpageshadow="2"
     inkscape:pageopacity="0.0"
     inkscape:pagecheckerboard="0"
     inkscape:deskcolor="#d1d1d1"
     showgrid="true"
     inkscape:zoom="3.337544"
     inkscape:cx="52.283955"
     inkscape:cy="87.189862"
     inkscape:window-width="1920"
     inkscape:window-height="1004"
     inkscape:window-x="0"
     inkscape:window-y="0"
     inkscape:window-maximized="1"
     inkscape:current-layer="svg8">
    <inkscape:grid
       type="xygrid"
       id="grid1172" />
  </sodipodi:namedview>
  <g
     transform="translate(0 -852.36)"
     shape-rendering="auto"
     id="g6">
    <path
       id="path2"
       style="isolation:auto;mix-blend-mode:normal;fill-opacity:1;fill:url(#linearGradient1074)"
       d="M 15 857.36 C 9.4600055 857.36 5 861.82001 5 867.36 L 5 1037.36 C 5 1042.9 9.4600055 1047.36 15 1047.36 L 35 1047.36 L 35 857.36 L 15 857.36 z " />
    <path
       transform="translate(0 852.36)"
       d="m18 94c-0.554 0-1 0.446-1 1v4h-4c-0.554 0-1 0.446-1 1s0.446 1 1 1h4v4c0 0.554 0.446 1 1 1s1-0.446 1-1v-4h4c0.554 0 1-0.446 1-1s-0.446-1-1-1h-4v-4c0-0.554-0.446-1-1-1zm8 6a8 8 0 0 1-8 8 8 8 0 0 1-8-8 8 8 0 0 1 8-8 8 8 0 0 1 8 8z"
       color="#000000"
       color-rendering="auto"
       fill="#ffffff"
       image-rendering="auto"
       solid-color="#000000"
       style="isolation:auto;mix-blend-mode:normal"
       id="path4" />
  </g>
</svg>
