<?xml version="1.0" encoding="UTF-8" standalone="no"?>
<svg
   width="24"
   height="24"
   version="1.1"
   viewBox="0 0 24 24"
   id="svg4"
   sodipodi:docname="checkbox.svg"
   inkscape:version="1.2.2 (b0a8486541, 2022-12-01)"
   xmlns:inkscape="http://www.inkscape.org/namespaces/inkscape"
   xmlns:sodipodi="http://sodipodi.sourceforge.net/DTD/sodipodi-0.dtd"
   xmlns:xlink="http://www.w3.org/1999/xlink"
   xmlns="http://www.w3.org/2000/svg"
   xmlns:svg="http://www.w3.org/2000/svg">
  <defs
     id="defs8">
    <linearGradient
       inkscape:collect="always"
       id="linearGradient916">
      <stop
         style="stop-color:#6a58f0;stop-opacity:1;"
         offset="0"
         id="stop912" />
      <stop
         style="stop-color:#cf54d0;stop-opacity:1;"
         offset="1"
         id="stop914" />
    </linearGradient>
    <linearGradient
       inkscape:collect="always"
       xlink:href="#linearGradient916"
       id="linearGradient918"
       x1="2"
       y1="12"
       x2="22"
       y2="12"
       gradientUnits="userSpaceOnUse" />
  </defs>
  <sodipodi:namedview
     id="namedview6"
     pagecolor="#ffffff"
     bordercolor="#666666"
     borderopacity="1.0"
     inkscape:showpageshadow="2"
     inkscape:pageopacity="0.0"
     inkscape:pagecheckerboard="0"
     inkscape:deskcolor="#d1d1d1"
     showgrid="false"
     inkscape:zoom="6.9532167"
     inkscape:cx="-29.482757"
     inkscape:cy="13.231286"
     inkscape:window-width="1920"
     inkscape:window-height="1012"
     inkscape:window-x="0"
     inkscape:window-y="32"
     inkscape:window-maximized="1"
     inkscape:current-layer="svg4" />
  <path
     d="M 12,2 C 6.4771525,2 2,6.4771525 2,12 2,17.522847 6.4771525,22 12,22 17.522847,22 22,17.522847 22,12 22,6.4771525 17.522847,2 12,2 Z"
     id="path2"
     style="fill-opacity:1;fill:url(#linearGradient918)" />
  <path
     d="m 17.6289,7.9629 v 0.00195 c 0.12781,-4e-6 0.25558,0.04855 0.35352,0.14648 0.19587,0.19587 0.19587,0.51116 0,0.70703 l -7.0723,7.0722998 c -0.02449,0.02449 -0.05032,0.04613 -0.07813,0.06445 -0.02772,0.01839 -0.05586,0.03268 -0.08594,0.04492 -0.03009,0.01224 -0.06225,0.01927 -0.09375,0.02539 -0.03149,0.0061 -0.06374,0.01172 -0.0957,0.01172 -0.03195,0 -0.06226,-0.0055 -0.09375,-0.01172 -0.03149,-0.0061 -0.06367,-0.01315 -0.09375,-0.02539 -0.03009,-0.01224 -0.05819,-0.02656 -0.08594,-0.04492 -0.01389,-0.0092 -0.02787,-0.02051 -0.04101,-0.03125 -0.01312,-0.01071 -0.02682,-0.02292 -0.03906,-0.03516 l -4.1855,-4.1875 c -0.19587,-0.19587 -0.19587,-0.51116 0,-0.70703 0.19587,-0.19587 0.51116,-0.19587 0.70703,0 l 3.832,3.834 6.7188,-6.7187998 c 0.09793,-0.09793 0.22571,-0.14648 0.35352,-0.14648 z"
     fill="#3c84f7"
     id="path333"
     sodipodi:nodetypes="cccsscscscsccccsccscc"
     style="fill:#ffffff" />
</svg>
