<?xml version="1.0" encoding="UTF-8" standalone="no"?>
<svg
   id="Foreground"
   width="48"
   height="48"
   enable-background="new 0 0 16 16"
   version="1.0"
   viewBox="0 0 34.908922 34.908922"
   sodipodi:docname="close-hover.svg"
   inkscape:version="1.2.2 (b0a8486541, 2022-12-01)"
   xmlns:inkscape="http://www.inkscape.org/namespaces/inkscape"
   xmlns:sodipodi="http://sodipodi.sourceforge.net/DTD/sodipodi-0.dtd"
   xmlns="http://www.w3.org/2000/svg"
   xmlns:svg="http://www.w3.org/2000/svg">
  <sodipodi:namedview
     id="namedview14"
     pagecolor="#ffffff"
     bordercolor="#000000"
     borderopacity="0.25"
     inkscape:showpageshadow="2"
     inkscape:pageopacity="0.0"
     inkscape:pagecheckerboard="0"
     inkscape:deskcolor="#d1d1d1"
     showgrid="true"
     inkscape:zoom="6.4183539"
     inkscape:cx="0.38950797"
     inkscape:cy="19.475399"
     inkscape:window-width="1920"
     inkscape:window-height="1004"
     inkscape:window-x="0"
     inkscape:window-y="0"
     inkscape:window-maximized="1"
     inkscape:current-layer="Foreground">
    <inkscape:grid
       type="xygrid"
       id="grid303"
       originx="0"
       originy="0" />
  </sodipodi:namedview>
  <defs
     id="defs5">
    <filter
       inkscape:collect="always"
       style="color-interpolation-filters:sRGB"
       id="filter862"
       x="-0.047999999"
       y="-0.047999999"
       width="1.096"
       height="1.096">
      <feGaussianBlur
         inkscape:collect="always"
         stdDeviation="0.40727074"
         id="feGaussianBlur864" />
    </filter>
  </defs>
  <circle
     cx="11.636308"
     cy="12.363576"
     r="10.181768"
     fill="#f75a61"
     stroke-width="0"
     id="circle305"
     style="opacity:0.15;fill:#000000;filter:url(#filter862)"
     transform="scale(1.5)" />
  <circle
     cx="17.454462"
     cy="17.454462"
     r="15.272653"
     fill="#f75a61"
     stroke-width="0"
     id="circle9"
     style="fill:#ff7077;fill-opacity:1" />
  <path
     d="m 11.072401,10.378068 c -0.177453,0 -0.35486,0.06741 -0.490825,0.203374 -0.271949,0.271949 -0.271949,0.709702 0,0.98165 l 5.889898,5.892571 -5.889898,5.889899 c -0.271949,0.271948 -0.271949,0.709701 0,0.981649 0.271949,0.27195 0.712412,0.27195 0.984361,0 l 5.889899,-5.889898 5.889898,5.889898 c 0.271949,0.27195 0.709702,0.27195 0.98165,0 0.271948,-0.271948 0.271948,-0.709701 0,-0.981649 l -5.889899,-5.889899 5.889899,-5.892571 c 0.271948,-0.271949 0.271948,-0.709701 0,-0.98165 -0.271948,-0.271948 -0.709701,-0.271948 -0.98165,0 l -5.889898,5.889899 -5.889899,-5.889899 C 11.429964,10.44547 11.24985,10.378068 11.072401,10.378068 Z"
     fill="#ffffff"
     stroke-linecap="round"
     stroke-linejoin="round"
     stroke-width="2.59749"
     style="paint-order:markers stroke fill"
     id="path11" />
  <path
     id="circle866"
     d="M 17.45446,2.1818076 A 15.272652,15.272652 0 0 0 2.1818076,17.45446 15.272652,15.272652 0 0 0 2.2137678,17.999913 15.272652,15.272652 0 0 1 17.45446,3.2727115 15.272652,15.272652 0 0 1 32.707939,17.786845 15.272652,15.272652 0 0 0 32.727115,17.45446 15.272652,15.272652 0 0 0 17.45446,2.1818076 Z"
     style="opacity:0.08;fill:#ffffff;stroke-width:1.5" />
</svg>
